<svg width="189" height="54" viewBox="0 0 189 54" fill="none" xmlns="http://www.w3.org/2000/svg">
<g opacity="0.45">
<rect width="37.8492" height="37.8492" transform="translate(14.9355 26.7634) rotate(-45)" fill="#94DCF2"/>
</g>
<rect width="37.8492" height="37.8492" transform="translate(7.36572 27.2366) rotate(-45)" fill="#56D0F7"/>
<rect width="37.8492" height="37.8492" transform="translate(0 26.9676) rotate(-45)" fill="#14BAEF"/>
<path d="M75.392 33V21.8H77.536L82.304 29.704H81.168L85.856 21.8H88L88.016 33H85.584L85.568 25.528H86.032L82.272 31.816H81.12L77.28 25.528H77.824V33H75.392ZM96.1583 33.192C95.2729 33.192 94.4516 33.048 93.6943 32.76C92.9476 32.472 92.2969 32.0667 91.7423 31.544C91.1983 31.0213 90.7716 30.408 90.4622 29.704C90.1636 29 90.0143 28.232 90.0143 27.4C90.0143 26.568 90.1636 25.8 90.4622 25.096C90.7716 24.392 91.2036 23.7787 91.7582 23.256C92.3129 22.7333 92.9636 22.328 93.7103 22.04C94.4569 21.752 95.2676 21.608 96.1423 21.608C97.0276 21.608 97.8383 21.752 98.5743 22.04C99.3209 22.328 99.9663 22.7333 100.51 23.256C101.065 23.7787 101.497 24.392 101.806 25.096C102.116 25.7893 102.27 26.5573 102.27 27.4C102.27 28.232 102.116 29.0053 101.806 29.72C101.497 30.424 101.065 31.0373 100.51 31.56C99.9663 32.072 99.3209 32.472 98.5743 32.76C97.8383 33.048 97.0329 33.192 96.1583 33.192ZM96.1423 30.984C96.6436 30.984 97.1023 30.8987 97.5183 30.728C97.9449 30.5573 98.3183 30.312 98.6383 29.992C98.9583 29.672 99.2036 29.2933 99.3743 28.856C99.5556 28.4187 99.6463 27.9333 99.6463 27.4C99.6463 26.8667 99.5556 26.3813 99.3743 25.944C99.2036 25.5067 98.9583 25.128 98.6383 24.808C98.3289 24.488 97.9609 24.2427 97.5343 24.072C97.1076 23.9013 96.6436 23.816 96.1423 23.816C95.6409 23.816 95.1769 23.9013 94.7503 24.072C94.3343 24.2427 93.9663 24.488 93.6463 24.808C93.3263 25.128 93.0756 25.5067 92.8943 25.944C92.7236 26.3813 92.6383 26.8667 92.6383 27.4C92.6383 27.9227 92.7236 28.408 92.8943 28.856C93.0756 29.2933 93.3209 29.672 93.6302 29.992C93.9502 30.312 94.3236 30.5573 94.7503 30.728C95.1769 30.8987 95.6409 30.984 96.1423 30.984ZM104.267 33V21.8H106.843V29.096L112.187 21.8H114.619V33H112.059V25.72L106.715 33H104.267ZM109.435 21.08C108.368 21.08 107.584 20.8667 107.083 20.44C106.592 20.0133 106.342 19.4107 106.331 18.632H108.107C108.118 19.016 108.23 19.3093 108.443 19.512C108.667 19.704 108.998 19.8 109.435 19.8C109.862 19.8 110.187 19.704 110.411 19.512C110.635 19.3093 110.752 19.016 110.763 18.632H112.539C112.528 19.4107 112.272 20.0133 111.771 20.44C111.27 20.8667 110.491 21.08 109.435 21.08ZM129.619 21.8H132.211V33H129.619V21.8ZM124.531 33H121.939V21.8H124.531V33ZM129.811 28.408H124.339V26.216H129.811V28.408ZM137.401 26.312H142.793V28.328H137.401V26.312ZM137.593 30.92H143.689V33H135.017V21.8H143.481V23.88H137.593V30.92ZM155.61 33.192C154.746 33.192 153.941 33.0533 153.194 32.776C152.458 32.488 151.818 32.0827 151.274 31.56C150.73 31.0373 150.303 30.424 149.994 29.72C149.695 29.016 149.546 28.2427 149.546 27.4C149.546 26.5573 149.695 25.784 149.994 25.08C150.303 24.376 150.73 23.7627 151.274 23.24C151.829 22.7173 152.474 22.3173 153.21 22.04C153.946 21.752 154.751 21.608 155.626 21.608C156.597 21.608 157.471 21.7787 158.25 22.12C159.039 22.4507 159.701 22.9413 160.234 23.592L158.57 25.128C158.186 24.6907 157.759 24.3653 157.29 24.152C156.821 23.928 156.309 23.816 155.754 23.816C155.231 23.816 154.751 23.9013 154.314 24.072C153.877 24.2427 153.498 24.488 153.178 24.808C152.858 25.128 152.607 25.5067 152.426 25.944C152.255 26.3813 152.17 26.8667 152.17 27.4C152.17 27.9333 152.255 28.4187 152.426 28.856C152.607 29.2933 152.858 29.672 153.178 29.992C153.498 30.312 153.877 30.5573 154.314 30.728C154.751 30.8987 155.231 30.984 155.754 30.984C156.309 30.984 156.821 30.8773 157.29 30.664C157.759 30.44 158.186 30.104 158.57 29.656L160.234 31.192C159.701 31.8427 159.039 32.3387 158.25 32.68C157.471 33.0213 156.591 33.192 155.61 33.192ZM160.456 33L165.448 21.8H168.008L173.016 33H170.296L166.2 23.112H167.224L163.112 33H160.456ZM162.952 30.6L163.64 28.632H169.4L170.104 30.6H162.952ZM174.501 33V21.8H176.645L181.413 29.704H180.277L184.965 21.8H187.109L187.125 33H184.693L184.677 25.528H185.141L181.381 31.816H180.229L176.389 25.528H176.933V33H174.501Z" fill="#024C91"/>
</svg>
